<svg width="127" height="34" viewBox="0 0 127 34" fill="none" xmlns="http://www.w3.org/2000/svg">
<g style="mix-blend-mode:luminosity" clip-path="url(#clip0_21423_20009)">
<path d="M52.8362 20.5071V15.4729C52.8362 15.3415 52.748 15.254 52.6159 15.254H50.9418V13.284H52.6159C52.748 13.284 52.8362 13.1964 52.8362 13.0651V9.9133H55.2151V13.0651C55.2151 13.1964 55.3032 13.284 55.4354 13.284H57.7703V15.254H55.4354C55.3032 15.254 55.2151 15.3415 55.2151 15.4729V19.9381C55.2151 22.0393 55.964 22.2144 56.9333 22.2144C57.2857 22.2144 57.8143 22.1706 58.1227 22.1268V24.1843C57.7263 24.2281 57.0654 24.3157 56.3165 24.3157C55.3913 24.2719 52.8362 24.2719 52.8362 20.5071ZM117.509 21.7329L119.447 20.726C119.888 21.7329 120.725 22.3895 121.694 22.3895C122.443 22.3895 123.28 22.083 123.28 21.1637C123.28 20.5509 122.883 20.2006 121.958 19.8943L120.637 19.4565C118.786 18.8874 117.861 17.8368 117.861 16.3484C117.861 14.466 119.447 13.0651 121.606 13.0651C123.324 13.0651 124.778 13.9844 125.483 15.4291L123.544 16.4797C123.104 15.5604 122.399 15.0351 121.562 15.0351C120.725 15.0351 120.152 15.4729 120.152 16.1295C120.152 16.6985 120.593 17.1364 121.474 17.3989L122.795 17.8368C124.734 18.4496 125.659 19.5002 125.659 20.9448C125.659 23.2213 123.676 24.4033 121.694 24.4033C119.711 24.3595 118.125 23.3526 117.509 21.7329ZM110.196 19.7629C110.152 19.8067 110.107 19.8505 110.107 19.8943V24.0968H107.684V8.55615H110.107V17.0488C110.107 17.1364 110.152 17.2239 110.24 17.2239C110.328 17.2677 110.416 17.2239 110.46 17.1801L114.381 13.2402H117.332L112.751 17.8368C112.663 17.9243 112.663 18.0119 112.751 18.0994L117.729 24.0968H114.777L110.945 19.3689C110.9 19.3251 110.856 19.2813 110.812 19.2813C110.768 19.2813 110.724 19.2813 110.68 19.3251L110.196 19.7629ZM106.495 14.7287L104.953 16.1733C104.072 15.5167 103.191 15.2102 102.222 15.2102C100.195 15.2102 98.6972 16.6985 98.6972 18.7123C98.6972 20.726 100.195 22.2144 102.222 22.2144C103.103 22.2144 104.028 21.9079 104.997 21.2513L106.363 22.6959C104.38 24.1406 103.323 24.4033 101.957 24.4033C100.327 24.4033 98.8735 23.8341 97.8161 22.7834C96.8028 21.7767 96.2302 20.2882 96.2302 18.7123C96.2302 15.4291 98.6532 13.0213 102.001 13.0213C103.103 13.0213 104.733 13.1964 106.495 14.7287ZM95.1288 10.0446C95.1288 10.8326 94.468 11.4892 93.675 11.4892C92.882 11.4892 92.2211 10.8326 92.2211 10.0446C92.2211 9.25657 92.882 8.59995 93.675 8.59995C94.468 8.59995 95.1288 9.25657 95.1288 10.0446ZM94.9085 24.0968H92.4855V13.284H94.9085V24.0968ZM87.199 19.3689V24.1406H84.7759V13.3278H87.1548V14.6411C87.1548 14.7287 87.199 14.8162 87.287 14.8599C87.3752 14.9037 87.4632 14.8599 87.5073 14.7724C88.124 13.7656 89.2695 13.1089 90.503 13.1089C90.6793 13.1089 90.8114 13.1089 90.8995 13.1527V15.6042C90.7673 15.5604 90.5471 15.5604 90.3268 15.5604C88.3884 15.5167 87.199 17.005 87.199 19.3689ZM74.2027 18.7123C74.2027 16.7423 75.7007 15.2102 77.639 15.2102C79.5774 15.2102 81.0753 16.7423 81.0753 18.7123C81.0753 20.6822 79.5774 22.2144 77.639 22.2144C75.7007 22.2144 74.2027 20.6822 74.2027 18.7123ZM74.423 22.8272C74.4671 22.8272 74.4671 22.8272 74.5111 22.8272C74.5551 22.8272 74.6433 22.871 74.6873 22.9148C75.5243 23.8779 76.7579 24.4033 78.1677 24.4033C81.1634 24.4033 83.4543 21.9079 83.4543 18.7123C83.4543 17.1364 82.9256 15.7355 81.9123 14.6411C80.9432 13.5905 79.5774 13.0213 78.1236 13.0213C76.7579 13.0213 75.4803 13.5905 74.6433 14.5973C74.5993 14.6411 74.5111 14.6849 74.423 14.6411C74.3349 14.5973 74.2909 14.5536 74.2909 14.466V8.59995H71.8678V24.1406H74.2909V23.0461C74.2909 22.9148 74.3349 22.871 74.423 22.8272ZM64.3785 22.2144C62.4842 22.2144 60.9422 20.6822 60.9422 18.7123C60.9422 16.7423 62.4401 15.2102 64.3785 15.2102C66.3169 15.2102 67.8148 16.7423 67.8148 18.7123C67.8148 20.6822 66.2729 22.2144 64.3785 22.2144ZM70.0616 24.0968V13.284H67.6827V14.3784C67.6827 14.466 67.6385 14.5536 67.5505 14.5536C67.4623 14.5973 67.3743 14.5536 67.3301 14.5098C66.5372 13.5467 65.3037 13.0213 63.8498 13.0213C60.8541 13.0213 58.5633 15.5167 58.5633 18.7123C58.5633 21.9079 60.8982 24.4033 63.8498 24.4033C65.2155 24.4033 66.4931 23.8341 67.3301 22.8272C67.3743 22.7397 67.4623 22.7397 67.5505 22.7834C67.6385 22.8272 67.6827 22.871 67.6827 22.9586V24.1406H70.0616V24.0968ZM43.9811 22.2144C42.0867 22.2144 40.5449 20.6822 40.5449 18.7123C40.5449 16.7423 42.0427 15.2102 43.9811 15.2102C45.8754 15.2102 47.4174 16.7423 47.4174 18.7123C47.4174 20.6822 45.8754 22.2144 43.9811 22.2144ZM49.6642 24.0968V13.284H47.2852V14.3784C47.2852 14.466 47.2412 14.5536 47.153 14.5536C47.065 14.5973 46.9768 14.5536 46.9328 14.5098C46.1398 13.5467 44.9062 13.0213 43.4525 13.0213C40.4567 13.0213 38.1658 15.5167 38.1658 18.7123C38.1658 21.9079 40.5008 24.4033 43.4525 24.4033C44.8182 24.4033 46.0958 23.8341 46.9328 22.8272C46.9768 22.7397 47.065 22.7397 47.153 22.7834C47.2412 22.8272 47.2852 22.871 47.2852 22.9586V24.1406H49.6642V24.0968ZM31.1171 22.2144C29.1787 22.2144 27.6808 20.6822 27.6808 18.7123C27.6808 16.7423 29.1787 15.2102 31.1171 15.2102C33.0115 15.2102 34.5534 16.7423 34.5534 18.7123C34.5534 20.6822 33.0115 22.2144 31.1171 22.2144ZM36.8002 24.0968V8.59995H34.3772V14.4222C34.3772 14.5098 34.3331 14.5973 34.245 14.5973C34.1569 14.6411 34.0688 14.5973 34.0247 14.5536C33.1877 13.5905 31.9541 13.0651 30.5444 13.0651C27.5487 13.0651 25.2578 15.5604 25.2578 18.7561C25.2578 20.332 25.7865 21.7329 26.7997 22.8272C27.7689 23.8779 29.1346 24.4469 30.5884 24.4469C31.9541 24.4469 33.2317 23.8779 34.0688 22.871C34.1128 22.8272 34.2009 22.7834 34.2891 22.8272C34.3772 22.871 34.4212 22.9148 34.4212 23.0024V24.1406H36.8002V24.0968Z" fill="#707070"/>
<path d="M19.1245 14.7067L10.0783 19.8374L0.455345 14.3707L0 14.615V18.5852L10.0783 24.3268L19.1245 19.196V21.3033L10.0783 26.4341L0.455345 20.9673L0 21.2117V21.8836L10.0783 27.6251L20.187 21.8836V17.9133L19.7317 17.669L10.0783 23.1357L1.06245 18.0049V15.9282L10.0783 21.0285L20.187 15.2869V11.3778L19.6709 11.1029L10.0783 16.539L1.54812 11.6832L10.0783 6.85781L17.121 10.828L17.7585 10.4921V10.0034L10.0783 5.66675L0 11.3778V11.9886L10.0783 17.7301L19.1245 12.5994V14.7067Z" fill="#FF3621"/>
</g>
<defs>
<clipPath id="clip0_21423_20009">
<rect width="126.083" height="34" fill="white"/>
</clipPath>
</defs>
</svg>
