<svg width="51" height="48" viewBox="0 0 51 48" fill="none" xmlns="http://www.w3.org/2000/svg">
<g style="mix-blend-mode:luminosity">
<path d="M-4.24281 33.6828C-2.45992 33.6828 -0.562613 33.3587 1.36329 32.5292C1.51584 32.472 1.54444 32.4052 1.54444 32.2622C1.48723 31.7283 1.42051 30.956 1.42051 30.3649V12.4407C1.42051 12.3262 1.42051 12.269 1.2775 12.269H-1.95459C-2.07853 12.269 -2.13575 12.3262 -2.13575 12.4788V18.5521C-2.64107 18.4949 -2.99383 18.4663 -3.41334 18.4663C-8.62854 18.4663 -11.832 21.9081 -11.832 26.208C-11.832 31.1944 -8.54274 33.6828 -4.24281 33.6828ZM-2.13576 30.3649C-2.66967 30.5365 -3.26079 30.6033 -3.86145 30.6033C-6.22593 30.6033 -8.16137 29.2685 -8.16137 26.0269C-8.16137 23.1571 -6.16872 21.46 -3.52775 21.46C-2.99383 21.46 -2.52666 21.5172 -2.13576 21.6698V30.3649Z" fill="#FA0C00"/>
<path d="M11.8553 18.4663C7.40284 18.4663 4.64746 21.8795 4.64746 26.0937C4.64746 29.8597 6.84032 33.6829 11.7886 33.6829C15.9741 33.6829 18.9106 30.6033 18.9106 25.9983C18.9106 21.9368 16.4222 18.4663 11.8553 18.4663ZM11.6742 21.46C14.1912 21.46 15.259 23.6243 15.259 26.0937C15.259 29.1446 13.6859 30.6605 11.8553 30.6605C9.5957 30.6605 8.26092 28.7632 8.26092 26.0269C8.26092 23.2143 9.68151 21.46 11.6742 21.46Z" fill="#FA0C00"/>
<path d="M22.2517 12.2689C22.1278 12.2689 22.042 12.3261 22.042 12.4787V32.7674C22.042 32.8532 22.1278 33.0058 22.2517 33.0344C23.6723 33.4729 25.1597 33.6827 26.6947 33.6827C31.0899 33.6827 35.3612 30.9559 35.3612 25.4642C35.3612 21.4885 32.6345 18.4661 28.3631 18.4661C27.3811 18.4661 26.4658 18.6187 25.665 18.8856L25.6268 12.5073C25.6268 12.2975 25.5696 12.2689 25.3599 12.2689H22.2517ZM31.7096 25.8265C31.7096 29.1158 29.4596 30.6604 27.0284 30.6604C26.5231 30.6604 26.0749 30.6318 25.665 30.5078V21.8508C26.1322 21.6696 26.6947 21.5171 27.7339 21.5171C30.0793 21.5171 31.7096 23.0044 31.7096 25.8265Z" fill="#FA0C00"/>
<path d="M47.4232 26.8944C48.8724 26.8944 50.0642 26.8658 50.4742 26.7705C50.6267 26.7419 50.6839 26.6847 50.7125 26.5607C50.7983 26.2365 50.8365 25.5596 50.8365 24.7301C50.8365 21.908 49.1394 18.4662 44.7537 18.4662C40.2726 18.4662 37.7842 22.1178 37.7842 26.2365C37.7842 29.8881 39.7101 33.6828 45.1064 33.6828C47.1277 33.6828 48.4339 33.3586 49.5589 32.8247C49.6733 32.7675 49.7305 32.6721 49.7305 32.5005V30.0312C49.7305 29.8881 49.6447 29.8595 49.5589 29.9167C48.4339 30.3935 47.2135 30.6318 45.8787 30.6318C42.8564 30.6318 41.4834 28.9633 41.3976 26.8944H47.4232ZM41.3976 24.3392C41.636 22.8901 42.5513 21.3169 44.6011 21.3169C46.8607 21.3169 47.4518 23.2142 47.4518 24.0723C47.4518 24.1009 47.4518 24.2248 47.4518 24.3106C47.3279 24.3392 46.9465 24.3392 45.8215 24.3392H41.3976Z" fill="#FA0C00"/>
</g>
</svg>
