<svg width="69" height="34" viewBox="0 0 69 34" fill="none" xmlns="http://www.w3.org/2000/svg">
<g style="mix-blend-mode:luminosity" clip-path="url(#clip0_21423_20006)">
<path d="M-0.833775 21.8468V12.4156C-0.833775 12.3016 -0.784908 12.2038 -0.703465 12.1224C-0.605732 12.041 -0.491711 11.9921 -0.361401 12.0084H2.29366C3.07552 11.9758 3.85738 12.2364 4.46007 12.7414C4.99759 13.23 5.2745 13.9956 5.2745 15.0381V15.1684C5.2745 16.2109 4.99759 16.9927 4.44378 17.4814C3.8248 17.9863 3.04295 18.2633 2.2448 18.2144H0.355305V21.8468C0.355305 21.9771 0.290154 22.0911 0.176132 22.1563C-0.0844879 22.3029 -0.393974 22.3029 -0.654594 22.1563C-0.768616 22.0911 -0.833775 21.9771 -0.833775 21.8468ZM0.339016 17.2371H2.2448C2.74975 17.2696 3.2547 17.0905 3.61305 16.7321C3.9714 16.3249 4.15058 15.7874 4.10171 15.2335V15.0707C4.15058 14.5331 3.9714 13.9956 3.61305 13.5721C3.23841 13.23 2.74975 13.0509 2.2448 13.0834H0.355305L0.339016 17.2371Z" fill="#FF6C37"/>
<path d="M9.37928 19.2895V15.0707C9.37928 14.0119 9.65619 13.2464 10.1937 12.7577C11.4968 11.7804 13.2886 11.7804 14.5917 12.7577C15.1455 13.2464 15.4224 14.0282 15.4224 15.0707V19.2895C15.4224 20.3482 15.1455 21.1138 14.5917 21.6025C13.2886 22.5961 11.4968 22.5961 10.1937 21.6025C9.65619 21.1138 9.37928 20.3482 9.37928 19.2895ZM10.5684 19.2895C10.5684 20.6089 11.171 21.2767 12.409 21.2767C12.9139 21.3093 13.4026 21.1301 13.7772 20.788C14.1356 20.3808 14.2985 19.8433 14.2659 19.2895V15.0544C14.3148 14.5169 14.1356 13.9794 13.7772 13.5558C13.4026 13.2138 12.9139 13.0346 12.409 13.0672C11.1873 13.0672 10.5846 13.7187 10.5846 15.0544L10.5684 19.2895Z" fill="#FF6C37"/>
<path d="M19.5923 20.8206C19.5923 20.6577 19.6575 20.5111 19.7552 20.3808C19.8367 20.2668 19.9507 20.1853 20.0973 20.169C20.2276 20.1853 20.3416 20.2505 20.4231 20.3482C20.5534 20.4622 20.6837 20.5925 20.8303 20.7391C21.0257 20.9183 21.2538 21.0486 21.4981 21.1301C21.8239 21.2604 22.1822 21.3092 22.5243 21.3092C23.0455 21.3418 23.5505 21.1789 23.9577 20.8695C24.3161 20.5437 24.5115 20.055 24.4789 19.5664C24.4952 19.094 24.3324 18.6542 24.0066 18.3121C23.6808 17.9863 23.2899 17.742 22.8501 17.5791C22.394 17.4162 21.9542 17.2371 21.4818 17.0416C21.0257 16.8461 20.6348 16.5529 20.3253 16.162C19.9995 15.7222 19.8204 15.1847 19.8529 14.6309C19.8367 14.1911 19.9344 13.7513 20.1299 13.3441C20.2927 13.002 20.5534 12.7251 20.8791 12.5296C21.1886 12.3504 21.5144 12.2201 21.8565 12.1224C22.2148 12.041 22.5732 11.9921 22.9315 11.9921C23.5016 11.9921 24.0554 12.0735 24.593 12.2364C25.1142 12.4156 25.3911 12.6436 25.3911 12.9205C25.3911 13.0671 25.3423 13.2137 25.2445 13.3441C25.1794 13.4744 25.0328 13.5721 24.8862 13.5721C24.6744 13.5069 24.4627 13.4255 24.2509 13.3278C23.8437 13.1486 23.4039 13.0509 22.9478 13.0671C22.4754 13.0509 21.9868 13.1649 21.5796 13.4092C21.2212 13.6535 21.0257 14.077 21.0583 14.5168C21.042 14.9241 21.2049 15.315 21.5144 15.5756C21.8565 15.8525 22.2474 16.0806 22.6709 16.2109C23.127 16.3738 23.5831 16.5529 24.0392 16.7647C24.4952 16.9927 24.8862 17.3348 25.1794 17.7583C25.5051 18.2795 25.668 18.8822 25.6517 19.5012C25.6517 20.4622 25.3748 21.1952 24.8047 21.6839C24.1857 22.2051 23.3876 22.4657 22.5732 22.4169C21.8402 22.4332 21.1072 22.254 20.4719 21.8956C19.8855 21.5047 19.5923 21.1626 19.5923 20.8206Z" fill="#FF6C37"/>
<path d="M29.1538 12.5295C29.1538 12.3992 29.1864 12.2689 29.2678 12.1712C29.333 12.0571 29.447 12.0083 29.5773 12.0083H35.2784C35.4087 12.0083 35.5227 12.0571 35.5878 12.1712C35.6693 12.2689 35.7019 12.3992 35.7019 12.5295C35.7019 12.6598 35.6693 12.8064 35.5878 12.9204C35.5227 13.0345 35.4087 13.0833 35.2784 13.0833H33.0468V21.8467C33.0468 21.977 32.9816 22.091 32.8676 22.1561C32.607 22.3027 32.2975 22.3027 32.0369 22.1561C31.9229 22.091 31.8577 21.977 31.8577 21.8467V13.0833H29.5936C29.4633 13.0833 29.3493 13.0345 29.2841 12.9204C29.2027 12.8064 29.1538 12.6761 29.1538 12.5295Z" fill="#FF6C37"/>
<path d="M39.709 21.8468V12.6111C39.6601 12.3342 39.8556 12.0736 40.1325 12.0247C40.1976 12.0084 40.2628 12.0084 40.3116 12.0247C40.6863 12.0247 40.9958 12.2691 41.2564 12.774L43.4554 16.9928L45.6706 12.774C45.9475 12.2853 46.257 12.0247 46.6154 12.0247C46.8923 11.9759 47.1529 12.1713 47.2018 12.4482C47.2181 12.4971 47.2181 12.546 47.2018 12.5948V21.8305C47.2018 21.9608 47.1366 22.0749 47.0226 22.14C46.762 22.2866 46.4525 22.2866 46.1919 22.14C46.0779 22.0749 46.0127 21.9608 46.0127 21.8305V14.4843L43.8952 18.4588C43.83 18.6542 43.6508 18.8008 43.4391 18.8008C43.2436 18.7845 43.0644 18.6542 42.9993 18.4588L40.8818 14.4029V21.8305C40.8818 21.9608 40.8166 22.0749 40.7026 22.14C40.5886 22.2215 40.442 22.2703 40.3116 22.2703C40.165 22.2703 40.0184 22.2378 39.9044 22.1563C39.7741 22.1074 39.6927 21.9771 39.709 21.8468Z" fill="#FF6C37"/>
<path d="M51.225 21.7817C51.225 21.7491 51.2413 21.7002 51.2575 21.6676L54.1244 12.4319C54.2058 12.155 54.4501 12.0247 54.8411 12.0247C55.232 12.0247 55.4763 12.155 55.5578 12.4319L58.4409 21.7165V21.7979C58.4409 21.9445 58.3431 22.0749 58.2128 22.14C58.0662 22.2377 57.8871 22.2866 57.6916 22.2703C57.5124 22.2866 57.3332 22.1889 57.2681 22.0097L56.6491 19.9573H52.9679L52.3489 22.0097C52.3 22.1889 52.1046 22.3029 51.9254 22.2866C51.7625 22.2866 51.5996 22.2377 51.453 22.14C51.3064 22.0749 51.225 21.9445 51.225 21.7817ZM53.2611 18.98H56.4048L54.8411 13.735L53.2611 18.98Z" fill="#FF6C37"/>
<path d="M62.4967 21.8467V12.4155C62.4967 12.1386 62.6922 12.0083 63.0831 12.0083C63.2623 12.0083 63.4415 12.0734 63.5881 12.1874C63.751 12.3503 63.8976 12.5458 63.979 12.7575L67.4811 19.5988V12.4155C67.4811 12.2852 67.5462 12.1712 67.6603 12.1223C67.9209 11.9757 68.2304 11.9757 68.491 12.1223C68.605 12.1874 68.6702 12.3015 68.6702 12.4155V21.8467C68.6702 21.977 68.605 22.091 68.491 22.1561C68.3607 22.2376 68.2304 22.2702 68.0838 22.2702C67.758 22.2539 67.4648 22.0421 67.3508 21.7326L63.6695 14.6796V21.8467C63.6695 21.977 63.6044 22.091 63.5066 22.1561C63.246 22.3027 62.9365 22.3027 62.6759 22.1561C62.5619 22.091 62.4967 21.977 62.4967 21.8467Z" fill="#FF6C37"/>
<path d="M-6.25791 19.2568C-5.1177 10.3306 -11.4214 2.16994 -20.3314 1.02973C-29.2413 -0.110481 -37.4346 6.19326 -38.5748 15.1032C-39.715 24.0131 -33.4112 32.1901 -24.5013 33.3466C-15.5751 34.4868 -7.41441 28.1831 -6.25791 19.2568Z" fill="#FF6C37"/>
</g>
<defs>
<clipPath id="clip0_21423_20006">
<rect width="107.667" height="34" fill="white" transform="translate(-38.708)"/>
</clipPath>
</defs>
</svg>
