<svg width="91" height="34" viewBox="0 0 91 34" fill="none" xmlns="http://www.w3.org/2000/svg">
<g style="mix-blend-mode:luminosity" clip-path="url(#clip0_21423_20012)">
<path d="M47.8456 9.95204C47.8456 10.9731 47.0231 11.7955 46.0021 11.7955C44.9811 11.7955 44.1586 10.9731 44.1586 9.95204C44.1586 8.93102 44.9527 8.10853 46.0021 8.10853C47.0515 8.13689 47.8456 8.95938 47.8456 9.95204ZM40.2447 13.6674C40.2447 13.8376 40.2447 14.1212 40.2447 14.1212C40.2447 14.1212 39.3655 12.9867 37.4936 12.9867C34.4022 12.9867 31.9914 15.3408 31.9914 18.6024C31.9914 21.8356 34.3738 24.218 37.4936 24.218C39.3938 24.218 40.2447 23.0551 40.2447 23.0551V23.5373C40.2447 23.7642 40.4148 23.9344 40.6417 23.9344H42.939V13.2704C42.939 13.2704 40.8403 13.2704 40.6417 13.2704C40.4148 13.2704 40.2447 13.4689 40.2447 13.6674ZM40.2447 20.5026C39.8192 21.1265 38.9684 21.6654 37.9474 21.6654C36.1322 21.6654 34.7425 20.5309 34.7425 18.6024C34.7425 16.6738 36.1322 15.5393 37.9474 15.5393C38.94 15.5393 39.8476 16.1065 40.2447 16.7021V20.5026ZM44.6407 13.2704H47.3634V23.9344H44.6407V13.2704ZM85.3114 12.9867C83.4395 12.9867 82.5603 14.1212 82.5603 14.1212V8.13689H79.8376V23.9344C79.8376 23.9344 81.9363 23.9344 82.1349 23.9344C82.3618 23.9344 82.5319 23.7358 82.5319 23.5373V23.0551C82.5319 23.0551 83.4112 24.218 85.283 24.218C88.3745 24.218 90.7852 21.8356 90.7852 18.6024C90.7852 15.3691 88.3744 12.9867 85.3114 12.9867ZM84.8576 21.6371C83.8082 21.6371 82.9857 21.0982 82.5603 20.4742V16.6738C82.9857 16.1065 83.8933 15.5109 84.8576 15.5109C86.6728 15.5109 88.0625 16.6454 88.0625 18.574C88.0625 20.5026 86.6728 21.6371 84.8576 21.6371ZM78.4195 17.6097V23.9627H75.6968V17.9217C75.6968 16.1632 75.1295 15.4542 73.598 15.4542C72.7755 15.4542 71.9247 15.8796 71.3858 16.5036V23.9344H68.6631V13.2704H70.8186C71.0455 13.2704 71.2156 13.4689 71.2156 13.6674V14.1212C72.0098 13.2987 73.0591 12.9867 74.1085 12.9867C75.2997 12.9867 76.2924 13.3271 77.0865 14.0078C78.0508 14.8019 78.4195 15.8229 78.4195 17.6097ZM62.0548 12.9867C60.1829 12.9867 59.3037 14.1212 59.3037 14.1212V8.13689H56.581V23.9344C56.581 23.9344 58.6798 23.9344 58.8783 23.9344C59.1052 23.9344 59.2754 23.7358 59.2754 23.5373V23.0551C59.2754 23.0551 60.1546 24.218 62.0264 24.218C65.1179 24.218 67.5286 21.8356 67.5286 18.6024C67.557 15.3691 65.1462 12.9867 62.0548 12.9867ZM61.601 21.6371C60.5516 21.6371 59.7291 21.0982 59.3037 20.4742V16.6738C59.7291 16.1065 60.6367 15.5109 61.601 15.5109C63.4162 15.5109 64.8059 16.6454 64.8059 18.574C64.8059 20.5026 63.4162 21.6371 61.601 21.6371ZM54.227 12.9867C55.0495 12.9867 55.4749 13.1285 55.4749 13.1285V15.6527C55.4749 15.6527 53.206 14.887 51.7879 16.5036V23.9627H49.0652V13.2704C49.0652 13.2704 51.1639 13.2704 51.3624 13.2704C51.5893 13.2704 51.7595 13.4689 51.7595 13.6674V14.1212C52.27 13.5256 53.3761 12.9867 54.227 12.9867ZM25.9504 22.9701C25.8086 22.6297 25.6668 22.261 25.525 21.949C25.2981 21.4385 25.0712 20.9564 24.8726 20.5026L24.8443 20.4742C22.8873 16.22 20.7885 11.909 18.5763 7.65474L18.4913 7.48457C18.2644 7.05914 18.0375 6.60536 17.8106 6.15157C17.527 5.64106 17.2433 5.10219 16.7896 4.59168C15.882 3.45721 14.5773 2.83325 13.1876 2.83325C11.7695 2.83325 10.4933 3.45721 9.55732 4.53495C9.1319 5.04546 8.81992 5.58434 8.5363 6.09485C8.30941 6.54863 8.08251 7.00242 7.85562 7.42785L7.77054 7.59802C5.58669 11.8523 3.45956 16.1632 1.5026 20.4175L1.47424 20.4742C1.27571 20.928 1.04882 21.4102 0.821923 21.9207C0.680114 22.2327 0.538306 22.573 0.396497 22.9417C0.0277955 23.9911 -0.0856513 24.9837 0.0561572 26.0048C0.368136 28.1319 1.78622 29.9187 3.74318 30.7128C4.48058 31.0248 5.24635 31.1666 6.04047 31.1666C6.26737 31.1666 6.55098 31.1382 6.77788 31.1099C7.71381 30.9964 8.67811 30.6844 9.61405 30.1456C10.7769 29.4932 11.883 28.5573 13.1309 27.1959C14.3788 28.5573 15.5133 29.4932 16.6477 30.1456C17.5837 30.6844 18.548 30.9964 19.4839 31.1099C19.7108 31.1382 19.9944 31.1666 20.2213 31.1666C21.0154 31.1666 21.8096 31.0248 22.5186 30.7128C24.5039 29.9187 25.8937 28.1035 26.2056 26.0048C26.4325 25.0121 26.3191 24.0194 25.9504 22.9701ZM13.1593 24.4449C11.6277 22.5163 10.6351 20.7011 10.2947 19.1696C10.1529 18.5173 10.1246 17.95 10.2096 17.4395C10.2664 16.9857 10.4365 16.5887 10.6634 16.2483C11.2023 15.4826 12.1099 15.0004 13.1593 15.0004C14.2086 15.0004 15.1446 15.4542 15.6551 16.2483C15.882 16.5887 16.0521 16.9857 16.1089 17.4395C16.194 17.95 16.1656 18.5456 16.0238 19.1696C15.6834 20.6728 14.6908 22.4879 13.1593 24.4449ZM24.4756 25.7779C24.277 27.2527 23.2844 28.5289 21.8947 29.0962C21.214 29.3798 20.4766 29.4649 19.7392 29.3798C19.0301 29.2947 18.3211 29.0678 17.5837 28.6424C16.5627 28.0752 15.5416 27.1959 14.3504 25.8913C16.2223 23.594 17.3568 21.4952 17.7822 19.6234C17.9807 18.7442 18.0091 17.95 17.924 17.2126C17.8106 16.5036 17.5553 15.8513 17.1583 15.284C16.279 14.0078 14.8042 13.2704 13.1593 13.2704C11.5143 13.2704 10.0395 14.0361 9.16026 15.284C8.7632 15.8513 8.50794 16.5036 8.39449 17.2126C8.28105 17.95 8.30941 18.7725 8.5363 19.6234C8.96173 21.4952 10.1246 23.6224 11.9681 25.9197C10.8052 27.2243 9.75585 28.1035 8.73483 28.6708C7.99743 29.0962 7.28839 29.3231 6.57935 29.4082C5.81358 29.4932 5.07618 29.3798 4.42386 29.1245C3.03413 28.5573 2.04148 27.281 1.84294 25.8062C1.75786 25.0972 1.81458 24.3881 2.0982 23.594C2.18328 23.3104 2.32509 23.0268 2.4669 22.6864C2.66543 22.2327 2.89233 21.7505 3.11922 21.2684L3.14758 21.2116C5.10454 16.9857 7.2033 12.6748 9.38715 8.47723L9.47224 8.30706C9.69913 7.88163 9.92602 7.42785 10.1529 7.00242C10.3798 6.54863 10.6351 6.12321 10.947 5.75451C11.5426 5.07383 12.3368 4.70512 13.216 4.70512C14.0952 4.70512 14.8893 5.07383 15.4849 5.75451C15.7969 6.12321 16.0521 6.54863 16.279 7.00242C16.5059 7.42785 16.7328 7.88163 16.9597 8.30706L17.0448 8.47723C19.2003 12.7031 21.2991 17.0141 23.256 21.24V21.2684C23.4829 21.7221 23.6814 22.2327 23.9083 22.6864C24.0501 23.0268 24.192 23.3104 24.277 23.594C24.5039 24.3314 24.589 25.0405 24.4756 25.7779Z" fill="#FF5A5F"/>
</g>
<defs>
<clipPath id="clip0_21423_20012">
<rect width="90.6667" height="34" fill="white"/>
</clipPath>
</defs>
</svg>
