<svg width="161" height="36" viewBox="0 0 161 36" fill="none" xmlns="http://www.w3.org/2000/svg">
<path d="M19.5967 8.94287L7.06152 13.2231V24.7817L0 27.1929V8.45947L19.5967 1.76904V8.94287Z" fill="#FF623E"/>
<path fill-rule="evenodd" clip-rule="evenodd" d="M9.99023 14.9811L29.5872 8.29058V27.0241L9.99023 33.7146V14.9811Z" fill="#FF623E"/>
<path d="M45.8115 27.24C44.4515 27.24 43.2835 27.008 42.3075 26.544C41.3475 26.08 40.4755 25.384 39.6915 24.456L41.8515 22.296C42.3475 22.952 42.9235 23.464 43.5795 23.832C44.2355 24.184 45.0355 24.36 45.9795 24.36C46.8275 24.36 47.4995 24.192 47.9955 23.856C48.5075 23.52 48.7635 23.056 48.7635 22.464C48.7635 21.952 48.6195 21.536 48.3315 21.216C48.0435 20.896 47.6595 20.624 47.1795 20.4C46.7155 20.176 46.1955 19.976 45.6195 19.8C45.0595 19.608 44.4915 19.392 43.9155 19.152C43.3555 18.912 42.8355 18.616 42.3555 18.264C41.8915 17.896 41.5155 17.432 41.2275 16.872C40.9395 16.296 40.7955 15.576 40.7955 14.712C40.7955 13.688 41.0435 12.816 41.5395 12.096C42.0355 11.376 42.7155 10.824 43.5795 10.44C44.4435 10.056 45.4195 9.864 46.5075 9.864C47.6595 9.864 48.6995 10.08 49.6275 10.512C50.5555 10.944 51.3155 11.504 51.9075 12.192L49.7475 14.352C49.2515 13.808 48.7395 13.408 48.2115 13.152C47.6995 12.896 47.1155 12.768 46.4595 12.768C45.7075 12.768 45.1155 12.912 44.6835 13.2C44.2515 13.488 44.0355 13.904 44.0355 14.448C44.0355 14.912 44.1795 15.288 44.4675 15.576C44.7555 15.864 45.1315 16.112 45.5955 16.32C46.0755 16.528 46.5955 16.728 47.1555 16.92C47.7315 17.112 48.2995 17.328 48.8595 17.568C49.4355 17.808 49.9555 18.12 50.4195 18.504C50.8995 18.888 51.2835 19.384 51.5715 19.992C51.8595 20.584 52.0035 21.32 52.0035 22.2C52.0035 23.768 51.4515 25 50.3475 25.896C49.2435 26.792 47.7315 27.24 45.8115 27.24ZM54.2436 27V15.408H57.3876V27H54.2436ZM61.8036 27V20.16C61.8036 19.488 61.5876 18.968 61.1556 18.6C60.7396 18.216 60.2196 18.024 59.5956 18.024C59.1796 18.024 58.8036 18.112 58.4676 18.288C58.1316 18.448 57.8676 18.688 57.6756 19.008C57.4836 19.328 57.3876 19.712 57.3876 20.16L56.1636 19.56C56.1636 18.664 56.3556 17.888 56.7396 17.232C57.1396 16.576 57.6756 16.072 58.3476 15.72C59.0196 15.352 59.7796 15.168 60.6276 15.168C61.4276 15.168 62.1556 15.352 62.8116 15.72C63.4676 16.072 63.9876 16.576 64.3716 17.232C64.7556 17.872 64.9476 18.648 64.9476 19.56V27H61.8036ZM69.3636 27V20.16C69.3636 19.488 69.1476 18.968 68.7156 18.6C68.2996 18.216 67.7796 18.024 67.1556 18.024C66.7556 18.024 66.3796 18.112 66.0276 18.288C65.6916 18.448 65.4276 18.688 65.2356 19.008C65.0436 19.328 64.9476 19.712 64.9476 20.16L63.1476 19.728C63.2116 18.8 63.4596 18 63.8916 17.328C64.3236 16.64 64.8916 16.112 65.5956 15.744C66.2996 15.36 67.0836 15.168 67.9476 15.168C68.8116 15.168 69.5876 15.352 70.2756 15.72C70.9636 16.072 71.5076 16.584 71.9076 17.256C72.3076 17.928 72.5076 18.728 72.5076 19.656V27H69.3636ZM79.9041 27.24C78.8481 27.24 77.8961 26.976 77.0481 26.448C76.2001 25.92 75.5361 25.2 75.0561 24.288C74.5761 23.376 74.3361 22.352 74.3361 21.216C74.3361 20.064 74.5761 19.032 75.0561 18.12C75.5361 17.208 76.2001 16.488 77.0481 15.96C77.8961 15.432 78.8481 15.168 79.9041 15.168C80.7361 15.168 81.4801 15.336 82.1361 15.672C82.7921 16.008 83.3121 16.48 83.6961 17.088C84.0961 17.68 84.3121 18.352 84.3441 19.104V23.28C84.3121 24.048 84.0961 24.728 83.6961 25.32C83.3121 25.912 82.7921 26.384 82.1361 26.736C81.4801 27.072 80.7361 27.24 79.9041 27.24ZM80.4801 24.336C81.3601 24.336 82.0721 24.048 82.6161 23.472C83.1601 22.88 83.4321 22.12 83.4321 21.192C83.4321 20.584 83.3041 20.048 83.0481 19.584C82.8081 19.104 82.4641 18.736 82.0161 18.48C81.5841 18.208 81.0721 18.072 80.4801 18.072C79.9041 18.072 79.3921 18.208 78.9441 18.48C78.5121 18.736 78.1681 19.104 77.9121 19.584C77.6721 20.048 77.5521 20.584 77.5521 21.192C77.5521 21.816 77.6721 22.368 77.9121 22.848C78.1681 23.312 78.5121 23.68 78.9441 23.952C79.3921 24.208 79.9041 24.336 80.4801 24.336ZM83.2641 27V23.88L83.7681 21.048L83.2641 18.264V15.408H86.3841V27H83.2641ZM89.1654 27V15.408H92.3094V27H89.1654ZM92.3094 20.592L91.0854 19.776C91.2294 18.352 91.6454 17.232 92.3334 16.416C93.0214 15.584 94.0134 15.168 95.3094 15.168C95.8694 15.168 96.3734 15.264 96.8214 15.456C97.2694 15.632 97.6774 15.928 98.0454 16.344L96.0774 18.6C95.9014 18.408 95.6854 18.264 95.4294 18.168C95.1894 18.072 94.9094 18.024 94.5894 18.024C93.9174 18.024 93.3654 18.24 92.9334 18.672C92.5174 19.088 92.3094 19.728 92.3094 20.592ZM100.924 27V10.584H104.068V27H100.924ZM98.2121 18.168V15.408H106.78V18.168H98.2121ZM117.373 27V10.488H120.661V27H117.373ZM111.997 13.032V10.128H126.037V13.032H111.997ZM130.616 27.24C129.4 27.24 128.32 26.984 127.376 26.472C126.432 25.944 125.68 25.224 125.12 24.312C124.576 23.4 124.304 22.36 124.304 21.192C124.304 20.04 124.568 19.016 125.096 18.12C125.64 17.208 126.376 16.488 127.304 15.96C128.232 15.416 129.264 15.144 130.4 15.144C131.52 15.144 132.504 15.4 133.352 15.912C134.216 16.408 134.888 17.096 135.368 17.976C135.864 18.84 136.112 19.824 136.112 20.928C136.112 21.136 136.096 21.352 136.064 21.576C136.048 21.784 136.008 22.024 135.944 22.296L126.2 22.32V19.968L134.48 19.944L133.208 20.928C133.176 20.24 133.048 19.664 132.824 19.2C132.616 18.736 132.304 18.384 131.888 18.144C131.488 17.888 130.992 17.76 130.4 17.76C129.776 17.76 129.232 17.904 128.768 18.192C128.304 18.464 127.944 18.856 127.688 19.368C127.448 19.864 127.328 20.456 127.328 21.144C127.328 21.848 127.456 22.464 127.712 22.992C127.984 23.504 128.368 23.904 128.864 24.192C129.36 24.464 129.936 24.6 130.592 24.6C131.184 24.6 131.72 24.504 132.2 24.312C132.68 24.104 133.096 23.8 133.448 23.4L135.296 25.248C134.736 25.904 134.048 26.4 133.232 26.736C132.432 27.072 131.56 27.24 130.616 27.24ZM143.528 27.24C142.344 27.24 141.28 26.976 140.336 26.448C139.392 25.92 138.648 25.2 138.104 24.288C137.56 23.376 137.288 22.352 137.288 21.216C137.288 20.064 137.56 19.032 138.104 18.12C138.648 17.208 139.392 16.488 140.336 15.96C141.296 15.416 142.36 15.144 143.528 15.144C144.44 15.144 145.28 15.312 146.048 15.648C146.816 15.984 147.48 16.464 148.04 17.088L146.024 19.128C145.72 18.792 145.352 18.536 144.92 18.36C144.504 18.184 144.04 18.096 143.528 18.096C142.952 18.096 142.432 18.232 141.968 18.504C141.52 18.76 141.16 19.12 140.888 19.584C140.632 20.032 140.504 20.568 140.504 21.192C140.504 21.8 140.632 22.344 140.888 22.824C141.16 23.288 141.52 23.656 141.968 23.928C142.432 24.184 142.952 24.312 143.528 24.312C144.056 24.312 144.528 24.224 144.944 24.048C145.376 23.856 145.744 23.584 146.048 23.232L148.088 25.272C147.496 25.912 146.816 26.4 146.048 26.736C145.28 27.072 144.44 27.24 143.528 27.24ZM157.669 27V20.352C157.669 19.664 157.453 19.104 157.021 18.672C156.589 18.24 156.029 18.024 155.341 18.024C154.893 18.024 154.493 18.12 154.141 18.312C153.789 18.504 153.509 18.776 153.301 19.128C153.109 19.48 153.013 19.888 153.013 20.352L151.789 19.728C151.789 18.816 151.981 18.024 152.365 17.352C152.749 16.664 153.277 16.128 153.949 15.744C154.637 15.36 155.421 15.168 156.301 15.168C157.181 15.168 157.957 15.36 158.629 15.744C159.317 16.128 159.853 16.656 160.237 17.328C160.621 18 160.813 18.776 160.813 19.656V27H157.669ZM149.869 27V9.648H153.013V27H149.869Z" fill="black"/>
</svg>
