<svg width="143" height="32" viewBox="0 0 143 32" fill="none" xmlns="http://www.w3.org/2000/svg">
<path d="M17.4199 7.94946L6.27637 11.7542V22.0286L0 24.1711V7.51978L17.4199 1.57251V7.94946Z" fill="#CC4E32"/>
<path fill-rule="evenodd" clip-rule="evenodd" d="M8.88086 13.3166L26.3003 7.36944V24.0214L8.88086 29.9686V13.3166Z" fill="#CC4E32"/>
<path d="M40.721 24.2133C39.5121 24.2133 38.4739 24.0071 37.6063 23.5947C36.753 23.1822 35.9779 22.5636 35.281 21.7387L37.201 19.8187C37.6419 20.4018 38.1539 20.8569 38.737 21.184C39.3201 21.4969 40.0312 21.6533 40.8703 21.6533C41.6241 21.6533 42.2215 21.504 42.6623 21.2053C43.1175 20.9067 43.345 20.4942 43.345 19.968C43.345 19.5129 43.217 19.1431 42.961 18.8587C42.705 18.5742 42.3637 18.3324 41.937 18.1333C41.5246 17.9342 41.0623 17.7564 40.5503 17.6C40.0526 17.4293 39.5477 17.2373 39.0357 17.024C38.5379 16.8107 38.0757 16.5476 37.649 16.2347C37.2366 15.9076 36.9023 15.4951 36.6463 14.9973C36.3903 14.4853 36.2623 13.8453 36.2623 13.0773C36.2623 12.1671 36.4828 11.392 36.9237 10.752C37.3646 10.112 37.969 9.62133 38.737 9.28C39.505 8.93867 40.3726 8.768 41.3397 8.768C42.3637 8.768 43.2881 8.96 44.113 9.344C44.9379 9.728 45.6135 10.2258 46.1397 10.8373L44.2197 12.7573C43.7788 12.2738 43.3237 11.9182 42.8543 11.6907C42.3992 11.4631 41.8801 11.3493 41.297 11.3493C40.6286 11.3493 40.1023 11.4773 39.7183 11.7333C39.3343 11.9893 39.1423 12.3591 39.1423 12.8427C39.1423 13.2551 39.2703 13.5893 39.5263 13.8453C39.7823 14.1013 40.1166 14.3218 40.529 14.5067C40.9557 14.6916 41.4179 14.8693 41.9157 15.04C42.4277 15.2107 42.9326 15.4027 43.4303 15.616C43.9423 15.8293 44.4046 16.1067 44.817 16.448C45.2437 16.7893 45.585 17.2302 45.841 17.7707C46.097 18.2969 46.225 18.9511 46.225 19.7333C46.225 21.1271 45.7343 22.2222 44.753 23.0187C43.7717 23.8151 42.4277 24.2133 40.721 24.2133ZM48.2162 24V13.696H51.0108V24H48.2162ZM54.9362 24V17.92C54.9362 17.3227 54.7442 16.8604 54.3602 16.5333C53.9904 16.192 53.5282 16.0213 52.9735 16.0213C52.6037 16.0213 52.2695 16.0996 51.9708 16.256C51.6722 16.3982 51.4375 16.6116 51.2668 16.896C51.0962 17.1804 51.0108 17.5218 51.0108 17.92L49.9228 17.3867C49.9228 16.5902 50.0935 15.9004 50.4348 15.3173C50.7904 14.7342 51.2668 14.2862 51.8642 13.9733C52.4615 13.6462 53.1371 13.4827 53.8908 13.4827C54.602 13.4827 55.2491 13.6462 55.8322 13.9733C56.4153 14.2862 56.8775 14.7342 57.2188 15.3173C57.5602 15.8862 57.7308 16.576 57.7308 17.3867V24H54.9362ZM61.6562 24V17.92C61.6562 17.3227 61.4642 16.8604 61.0802 16.5333C60.7104 16.192 60.2482 16.0213 59.6935 16.0213C59.338 16.0213 59.0037 16.0996 58.6908 16.256C58.3922 16.3982 58.1575 16.6116 57.9868 16.896C57.8162 17.1804 57.7308 17.5218 57.7308 17.92L56.1308 17.536C56.1877 16.7111 56.4082 16 56.7922 15.4027C57.1762 14.7911 57.6811 14.3218 58.3068 13.9947C58.9326 13.6533 59.6295 13.4827 60.3975 13.4827C61.1655 13.4827 61.8553 13.6462 62.4668 13.9733C63.0784 14.2862 63.562 14.7413 63.9175 15.3387C64.2731 15.936 64.4508 16.6471 64.4508 17.472V24H61.6562ZM71.0255 24.2133C70.0868 24.2133 69.2406 23.9787 68.4868 23.5093C67.7331 23.04 67.1428 22.4 66.7162 21.5893C66.2895 20.7787 66.0762 19.8684 66.0762 18.8587C66.0762 17.8347 66.2895 16.9173 66.7162 16.1067C67.1428 15.296 67.7331 14.656 68.4868 14.1867C69.2406 13.7173 70.0868 13.4827 71.0255 13.4827C71.7651 13.4827 72.4264 13.632 73.0095 13.9307C73.5926 14.2293 74.0548 14.6489 74.3962 15.1893C74.7517 15.7156 74.9437 16.3129 74.9722 16.9813V20.6933C74.9437 21.376 74.7517 21.9804 74.3962 22.5067C74.0548 23.0329 73.5926 23.4524 73.0095 23.7653C72.4264 24.064 71.7651 24.2133 71.0255 24.2133ZM71.5375 21.632C72.3197 21.632 72.9526 21.376 73.4362 20.864C73.9197 20.3378 74.1615 19.6622 74.1615 18.8373C74.1615 18.2969 74.0477 17.8204 73.8202 17.408C73.6068 16.9813 73.3011 16.6542 72.9028 16.4267C72.5188 16.1849 72.0637 16.064 71.5375 16.064C71.0255 16.064 70.5704 16.1849 70.1722 16.4267C69.7882 16.6542 69.4824 16.9813 69.2548 17.408C69.0415 17.8204 68.9348 18.2969 68.9348 18.8373C68.9348 19.392 69.0415 19.8827 69.2548 20.3093C69.4824 20.7218 69.7882 21.0489 70.1722 21.2907C70.5704 21.5182 71.0255 21.632 71.5375 21.632ZM74.0122 24V21.2267L74.4602 18.7093L74.0122 16.2347V13.696H76.7855V24H74.0122ZM79.2578 24V13.696H82.0525V24H79.2578ZM82.0525 18.304L80.9645 17.5787C81.0925 16.3129 81.4623 15.3173 82.0738 14.592C82.6854 13.8524 83.5672 13.4827 84.7192 13.4827C85.217 13.4827 85.665 13.568 86.0632 13.7387C86.4614 13.8951 86.8241 14.1582 87.1512 14.528L85.4018 16.5333C85.2454 16.3627 85.0534 16.2347 84.8258 16.1493C84.6125 16.064 84.3636 16.0213 84.0792 16.0213C83.4818 16.0213 82.9912 16.2133 82.6072 16.5973C82.2374 16.9671 82.0525 17.536 82.0525 18.304ZM89.71 24V9.408H92.5047V24H89.71ZM87.2993 16.1493V13.696H94.9153V16.1493H87.2993ZM104.331 24V9.32267H107.254V24H104.331ZM99.5523 11.584V9.00267H112.032V11.584H99.5523ZM116.103 24.2133C115.022 24.2133 114.062 23.9858 113.223 23.5307C112.383 23.0613 111.715 22.4213 111.217 21.6107C110.734 20.8 110.492 19.8756 110.492 18.8373C110.492 17.8133 110.727 16.9031 111.196 16.1067C111.679 15.296 112.334 14.656 113.159 14.1867C113.983 13.7031 114.901 13.4613 115.911 13.4613C116.906 13.4613 117.781 13.6889 118.535 14.144C119.303 14.5849 119.9 15.1964 120.327 15.9787C120.767 16.7467 120.988 17.6213 120.988 18.6027C120.988 18.7876 120.974 18.9796 120.945 19.1787C120.931 19.3636 120.895 19.5769 120.839 19.8187L112.177 19.84V17.7493L119.537 17.728L118.407 18.6027C118.378 17.9911 118.264 17.4791 118.065 17.0667C117.88 16.6542 117.603 16.3413 117.233 16.128C116.878 15.9004 116.437 15.7867 115.911 15.7867C115.356 15.7867 114.872 15.9147 114.46 16.1707C114.047 16.4124 113.727 16.7609 113.5 17.216C113.287 17.6569 113.18 18.1831 113.18 18.7947C113.18 19.4204 113.294 19.968 113.521 20.4373C113.763 20.8924 114.104 21.248 114.545 21.504C114.986 21.7458 115.498 21.8667 116.081 21.8667C116.607 21.8667 117.084 21.7813 117.511 21.6107C117.937 21.4258 118.307 21.1556 118.62 20.8L120.263 22.4427C119.765 23.0258 119.153 23.4667 118.428 23.7653C117.717 24.064 116.942 24.2133 116.103 24.2133ZM127.58 24.2133C126.528 24.2133 125.582 23.9787 124.743 23.5093C123.904 23.04 123.242 22.4 122.759 21.5893C122.275 20.7787 122.034 19.8684 122.034 18.8587C122.034 17.8347 122.275 16.9173 122.759 16.1067C123.242 15.296 123.904 14.656 124.743 14.1867C125.596 13.7031 126.542 13.4613 127.58 13.4613C128.391 13.4613 129.138 13.6107 129.82 13.9093C130.503 14.208 131.093 14.6347 131.591 15.1893L129.799 17.0027C129.529 16.704 129.202 16.4764 128.818 16.32C128.448 16.1636 128.035 16.0853 127.58 16.0853C127.068 16.0853 126.606 16.2062 126.194 16.448C125.795 16.6756 125.475 16.9956 125.234 17.408C125.006 17.8062 124.892 18.2827 124.892 18.8373C124.892 19.3778 125.006 19.8613 125.234 20.288C125.475 20.7004 125.795 21.0276 126.194 21.2693C126.606 21.4969 127.068 21.6107 127.58 21.6107C128.05 21.6107 128.469 21.5324 128.839 21.376C129.223 21.2053 129.55 20.9636 129.82 20.6507L131.634 22.464C131.107 23.0329 130.503 23.4667 129.82 23.7653C129.138 24.064 128.391 24.2133 127.58 24.2133ZM140.15 24V18.0907C140.15 17.4791 139.958 16.9813 139.574 16.5973C139.19 16.2133 138.692 16.0213 138.08 16.0213C137.682 16.0213 137.326 16.1067 137.014 16.2773C136.701 16.448 136.452 16.6898 136.267 17.0027C136.096 17.3156 136.011 17.6782 136.011 18.0907L134.923 17.536C134.923 16.7253 135.094 16.0213 135.435 15.424C135.776 14.8124 136.246 14.336 136.843 13.9947C137.454 13.6533 138.151 13.4827 138.934 13.4827C139.716 13.4827 140.406 13.6533 141.003 13.9947C141.614 14.336 142.091 14.8053 142.432 15.4027C142.774 16 142.944 16.6898 142.944 17.472V24H140.15ZM133.216 24V8.576H136.011V24H133.216Z" fill="white"/>
</svg>
